<?xml version="1.0" standalone="no"?>
<!DOCTYPE svg PUBLIC "-//W3C//DTD SVG 20010904//EN"
 "http://www.w3.org/TR/2001/REC-SVG-20010904/DTD/svg10.dtd">
<svg version="1.0" xmlns="http://www.w3.org/2000/svg"
 width="600.000000pt" height="600.000000pt" viewBox="0 0 600.000000 600.000000"
 preserveAspectRatio="xMidYMid meet">
<metadata>
Created by potrace 1.16, written by Peter Selinger 2001-2019
</metadata>
<g transform="translate(0.000000,600.000000) scale(0.100000,-0.100000)"
fill="#000000" stroke="none">
<path d="M0 5740 l0 -260 2143 0 2143 0 27 -112 c49 -202 59 -303 61 -573 1
-208 -2 -261 -16 -318 -20 -75 -22 -101 -9 -77 23 38 50 143 61 230 14 121 14
398 0 515 -9 75 -46 252 -66 318 -5 15 3 17 68 17 73 0 73 0 74 -27 0 -16 6
-98 13 -183 35 -426 -57 -834 -288 -1274 -225 -430 -614 -888 -1001 -1177
-367 -275 -655 -444 -968 -568 -128 -50 -393 -143 -509 -177 -51 -15 -91 -29
-90 -31 7 -7 238 40 334 68 226 65 569 200 708 277 408 226 705 441 956 692
567 568 901 1208 958 1840 17 180 11 389 -14 523 l-7 37 234 0 235 0 26 -122
c78 -366 57 -763 -63 -1165 -61 -207 -220 -536 -358 -743 -193 -289 -515 -643
-782 -861 -110 -90 -287 -215 -325 -229 -12 -5 -52 -27 -89 -49 -92 -57 -233
-126 -438 -217 -225 -99 -357 -148 -668 -245 -296 -92 -577 -191 -727 -255
-220 -94 -534 -260 -689 -365 -78 -52 -204 -149 -204 -156 0 -2 3 -2 7 1 5 2
67 43 138 91 132 88 465 261 677 353 116 51 332 127 788 277 277 91 400 137
570 212 147 65 423 206 513 262 35 23 86 50 113 62 53 24 223 144 349 247 200
165 404 372 615 627 201 242 429 645 527 930 73 213 129 509 140 735 6 139
-14 357 -46 482 -10 40 -21 85 -25 101 l-6 27 133 0 c121 0 133 -2 134 -18 1
-10 8 -45 17 -78 53 -206 65 -624 25 -861 -82 -491 -325 -992 -668 -1378 l-36
-40 33 30 c90 80 260 303 354 465 217 370 340 716 379 1070 26 236 9 569 -40
743 l-18 67 137 0 137 0 26 -117 c35 -150 47 -264 47 -433 0 -421 -81 -768
-265 -1130 -115 -225 -203 -360 -377 -575 -18 -22 -25 -34 -15 -26 21 17 181
217 224 281 109 161 265 464 321 623 78 219 114 400 133 656 18 239 -10 522
-66 682 l-14 39 154 0 155 0 0 260 0 260 -3000 0 -3000 0 0 -260z m4327 -266
c-3 -3 -12 -4 -19 -1 -8 3 -5 6 6 6 11 1 17 -2 13 -5z m231 -1 c-10 -2 -28 -2
-40 0 -13 2 -5 4 17 4 22 1 32 -1 23 -4z"/>
<path d="M4810 5458 c0 -7 7 -53 15 -103 23 -132 30 -418 16 -556 -27 -244
-98 -520 -188 -729 -174 -403 -368 -687 -697 -1016 -331 -331 -552 -491 -961
-696 -271 -136 -481 -219 -1050 -418 -668 -234 -1056 -492 -1505 -1000 -63
-71 -43 -54 122 99 214 199 291 262 468 381 292 196 505 292 1070 485 783 267
1140 449 1562 795 139 114 452 428 573 574 413 499 655 1080 691 1656 9 141
-14 423 -42 523 -6 20 -74 25 -74 5z"/>
<path d="M1750 5214 c-30 -8 -74 -19 -97 -24 -24 -5 -69 -17 -100 -26 -48 -14
-55 -18 -38 -26 17 -7 15 -8 -7 -5 -15 2 -25 0 -22 -4 3 -5 -6 -9 -20 -9 -13
0 -60 -14 -103 -31 -85 -34 -126 -60 -53 -34 56 20 174 45 203 44 20 -1 20 -2
2 -6 -61 -14 -195 -58 -244 -80 -31 -14 -65 -25 -76 -25 l-20 2 20 -9 c17 -8
9 -14 -53 -42 -69 -31 -95 -51 -37 -29 53 20 360 82 450 91 213 20 381 6 615
-52 271 -67 603 -227 761 -366 30 -26 65 -56 78 -67 l25 -21 -18 28 c-17 28
-17 28 3 18 11 -6 26 -19 33 -29 7 -9 27 -28 43 -42 28 -24 28 -24 -5 20 -19
25 -56 72 -83 105 -28 34 3 7 72 -64 67 -68 121 -121 121 -117 0 28 -96 172
-168 251 -30 33 -17 22 29 -25 46 -47 113 -130 148 -183 35 -54 66 -96 68 -93
7 7 -45 125 -86 197 -22 38 -38 69 -36 69 9 0 85 -120 134 -210 28 -52 51 -88
51 -79 0 19 -42 144 -64 190 -15 30 -15 32 -1 14 20 -25 70 -121 101 -195 13
-30 23 -46 23 -35 1 32 -26 136 -48 188 -11 26 -18 47 -16 47 11 0 59 -97 85
-175 16 -49 32 -90 34 -92 7 -8 -4 79 -21 152 -8 39 -26 92 -40 119 -13 26
-20 45 -15 42 18 -11 82 -153 99 -222 l18 -69 3 49 c10 150 -84 347 -219 463
-94 81 -104 78 -19 -7 52 -53 103 -111 113 -130 l18 -35 -22 30 c-39 53 -160
166 -243 228 -141 104 -492 257 -646 282 -65 11 -47 0 45 -25 220 -59 488
-195 615 -310 30 -27 9 -15 -60 35 -219 155 -572 285 -898 330 -141 19 -357
19 -432 -1z m255 -14 l70 -7 -75 0 c-41 0 -109 3 -150 7 l-75 7 80 0 c44 0
112 -3 150 -7z m-262 -7 c-7 -2 -19 -2 -25 0 -7 3 -2 5 12 5 14 0 19 -2 13 -5z
m483 -18 c197 -34 461 -119 619 -198 83 -41 215 -127 237 -155 7 -9 -12 2 -42
24 -149 108 -341 194 -587 263 -100 27 -276 65 -348 74 l-30 4 31 2 c17 0 71
-6 120 -14z m-523 -22 c-18 -2 -48 -2 -65 0 -18 2 -4 4 32 4 36 0 50 -2 33 -4z
m250 0 c-24 -2 -62 -2 -85 0 -24 2 -5 4 42 4 47 0 66 -2 43 -4z m-370 -10 c-7
-2 -21 -2 -30 0 -10 3 -4 5 12 5 17 0 24 -2 18 -5z m495 0 c-10 -2 -28 -2 -40
0 -13 2 -5 4 17 4 22 1 32 -1 23 -4z m102 -13 c17 -6 9 -7 -25 -3 -27 3 -52 7
-54 9 -8 7 54 2 79 -6z m63 -17 c-7 -2 -19 -2 -25 0 -7 3 -2 5 12 5 14 0 19
-2 13 -5z m-350 -10 c-13 -2 -33 -2 -45 0 -13 2 -3 4 22 4 25 0 35 -2 23 -4z
m422 -3 c25 -11 -1 -11 -35 0 -20 6 -21 8 -5 8 11 0 29 -3 40 -8z m-312 -7
c-7 -2 -21 -2 -30 0 -10 3 -4 5 12 5 17 0 24 -2 18 -5z m54 -9 c-3 -3 -12 -4
-19 -1 -8 3 -5 6 6 6 11 1 17 -2 13 -5z m368 -15 c14 -6 9 -7 -15 -3 -19 4
-44 11 -55 15 -14 6 -9 7 15 3 19 -4 44 -11 55 -15z m-322 4 c-7 -2 -19 -2
-25 0 -7 3 -2 5 12 5 14 0 19 -2 13 -5z m60 -10 c-7 -2 -21 -2 -30 0 -10 3 -4
5 12 5 17 0 24 -2 18 -5z m-134 -28 c241 -35 478 -114 707 -236 142 -77 121
-74 -32 4 -171 87 -283 130 -448 172 -185 47 -345 68 -506 67 -74 -1 -152 -5
-172 -8 -24 -3 -38 -2 -38 5 0 24 315 22 489 -4z m178 19 c-3 -3 -12 -4 -19
-1 -8 3 -5 6 6 6 11 1 17 -2 13 -5z m40 -10 c-3 -3 -12 -4 -19 -1 -8 3 -5 6 6
6 11 1 17 -2 13 -5z m-720 -10 c-3 -3 -12 -4 -19 -1 -8 3 -5 6 6 6 11 1 17 -2
13 -5z m793 -4 c20 -6 21 -8 5 -8 -11 0 -31 4 -45 8 -20 6 -21 8 -5 8 11 0 31
-4 45 -8z m240 0 c13 -9 13 -10 0 -9 -8 0 -24 4 -35 9 l-20 9 20 0 c11 0 27
-4 35 -9z m-1125 -15 c-34 -7 -92 -22 -129 -34 -38 -12 -71 -19 -74 -16 -13
12 165 63 223 63 36 0 34 -1 -20 -13z"/>
<path d="M1510 4970 c-84 -12 -269 -51 -210 -45 25 3 82 11 127 20 294 53 618
9 974 -131 151 -59 266 -115 394 -193 66 -40 125 -76 130 -79 6 -2 -10 15 -33
40 -48 50 -204 147 -327 204 -163 75 -325 126 -534 166 -120 22 -412 33 -521
18z"/>
<path d="M1168 4903 c7 -3 16 -2 19 1 4 3 -2 6 -13 5 -11 0 -14 -3 -6 -6z"/>
<path d="M1246 4815 c26 -164 145 -465 236 -597 11 -16 17 -28 14 -28 -11 0
-105 149 -150 238 -47 93 -97 213 -121 287 -7 22 -13 33 -14 25 -2 -25 59
-200 102 -295 48 -106 112 -209 174 -283 25 -29 43 -55 40 -58 -9 -9 -117 120
-151 180 -41 76 -116 193 -116 184 0 -7 44 -91 60 -113 17 -25 60 -105 57
-105 -8 0 -148 190 -183 248 -19 31 -34 53 -34 47 0 -14 89 -162 143 -237 24
-35 84 -106 133 -158 104 -110 59 -85 -57 32 -107 108 -194 221 -256 331 -29
50 -53 89 -53 85 0 -4 17 -42 37 -85 20 -43 37 -87 38 -99 2 -33 106 -170 218
-286 72 -75 90 -97 60 -75 -62 44 -207 197 -281 296 -92 122 -186 320 -218
456 -3 17 -8 25 -11 18 -6 -18 42 -172 87 -275 55 -127 159 -278 264 -383 50
-50 105 -101 121 -113 l30 -23 -33 18 c-64 35 -217 179 -298 282 -46 57 -112
158 -148 225 -36 66 -66 117 -66 112 0 -25 143 -288 198 -364 65 -90 52 -79
-67 53 -63 70 -41 29 35 -65 68 -85 181 -194 269 -260 83 -62 88 -67 55 -50
-156 79 -426 348 -537 535 -65 109 -68 102 -8 -15 102 -197 358 -447 578 -566
73 -40 71 -44 -6 -10 -98 44 -241 142 -334 229 -22 22 -46 37 -51 33 -6 -3
-61 49 -123 116 -147 161 -145 160 -119 111 51 -94 175 -231 325 -361 58 -50
45 -45 -41 15 -140 98 -326 305 -404 450 -11 21 -20 31 -20 22 0 -22 105 -187
166 -261 59 -72 193 -194 269 -244 68 -45 71 -54 8 -18 -135 77 -318 233 -380
322 -20 28 -38 52 -40 52 -16 0 59 -101 132 -178 80 -84 250 -216 343 -266 15
-8 22 -15 16 -16 -13 0 -183 100 -248 147 -28 21 -80 65 -116 98 l-65 60 55
-60 c74 -81 160 -148 272 -212 51 -29 89 -53 84 -53 -22 0 -189 87 -278 145
-55 36 -102 64 -105 62 -2 -3 28 -28 66 -57 39 -28 69 -57 68 -63 -1 -7 43
-35 98 -64 55 -29 97 -52 93 -53 -19 -1 -217 94 -315 151 -88 51 -127 82 -212
168 -116 118 -109 104 18 -36 127 -140 328 -260 559 -335 51 -16 91 -32 89
-34 -5 -6 -157 39 -238 69 -98 37 -274 130 -369 195 -22 15 -24 15 -12 0 16
-21 157 -114 242 -161 85 -46 205 -94 305 -123 44 -12 69 -23 55 -23 -59 -2
-239 62 -398 143 -175 88 -292 165 -437 287 l-50 43 50 -53 c138 -146 389
-306 601 -382 47 -17 83 -33 81 -35 -8 -8 -185 48 -272 87 -95 42 -195 101
-308 182 -38 26 -71 46 -73 44 -7 -6 108 -96 191 -149 97 -63 200 -113 335
-165 136 -52 88 -49 -75 5 -114 37 -298 126 -381 183 -26 17 -44 27 -40 21 11
-18 138 -98 226 -142 104 -52 239 -104 350 -135 105 -29 61 -33 -55 -6 -157
38 -417 143 -467 188 -22 19 -21 26 -8 -122 34 -383 199 -803 446 -1136 125
-168 404 -438 579 -560 46 -32 16 0 -121 134 -372 361 -553 623 -709 1023 -50
126 -126 387 -149 509 -8 44 -19 92 -25 107 -10 26 -9 26 90 -23 181 -90 296
-129 464 -159 99 -18 100 -18 40 -19 -97 -1 -180 16 -350 74 -88 30 -161 53
-163 51 -1 -2 57 -27 129 -55 187 -74 400 -119 584 -122 60 -2 53 -3 -45 -10
-106 -8 -259 1 -420 26 -24 3 -19 0 15 -10 28 -8 93 -19 145 -25 163 -19 176
-23 95 -31 -41 -4 -5 -5 85 -3 85 2 170 8 189 13 19 6 37 9 39 6 2 -2 -38 -17
-89 -34 -52 -16 -84 -30 -72 -30 12 -1 59 11 103 25 45 14 84 23 88 20 3 -3 0
-6 -7 -6 -7 0 -24 -9 -38 -20 -15 -11 -51 -28 -82 -37 -31 -9 -51 -18 -45 -20
6 -2 36 6 65 18 139 55 203 78 207 75 5 -6 -271 -144 -333 -166 -68 -25 -43
-25 30 0 31 11 61 17 66 14 14 -9 121 27 203 68 43 21 80 37 82 35 7 -7 -142
-96 -237 -143 -52 -25 -83 -42 -69 -38 39 10 239 102 269 123 31 22 122 63
128 57 2 -2 -21 -19 -50 -37 -30 -19 -85 -55 -123 -81 -39 -25 -110 -67 -159
-92 -49 -25 -86 -46 -82 -46 8 0 89 32 152 61 28 13 54 22 58 21 5 -1 41 16
82 38 107 59 104 49 -7 -23 -53 -34 -105 -67 -115 -74 -10 -7 9 -1 42 13 33
14 78 38 100 53 64 43 73 45 30 5 -22 -20 -70 -56 -107 -80 -38 -24 -68 -47
-68 -50 0 -10 86 43 217 132 68 46 125 84 128 84 3 0 -13 -17 -36 -37 -23 -20
-57 -52 -77 -71 -21 -19 -71 -59 -112 -89 -41 -31 -79 -60 -85 -66 -26 -25 85
45 165 105 50 37 90 63 90 58 0 -11 -129 -116 -204 -166 -31 -20 -55 -39 -52
-41 6 -7 123 66 213 133 l88 66 -70 -67 c-38 -37 -83 -78 -100 -91 -16 -13
-25 -24 -20 -24 6 0 48 33 95 73 124 106 157 129 164 114 3 -8 14 -2 30 18 14
17 26 27 26 23 0 -14 -106 -136 -219 -252 l-116 -119 90 76 c50 41 119 105
155 142 36 37 79 76 95 88 32 22 12 -3 -129 -168 -130 -151 -84 -111 117 105
93 100 96 102 53 40 -25 -36 -72 -99 -105 -140 -73 -91 -132 -173 -104 -145
64 65 233 268 270 324 2 2 5 2 8 0 5 -5 -107 -193 -134 -224 -27 -32 -94 -138
-82 -130 11 6 162 205 196 258 10 15 20 26 22 23 7 -7 -43 -99 -100 -182 -62
-92 -70 -104 -64 -104 10 0 100 125 167 230 108 171 111 170 26 -15 -48 -103
-38 -104 17 -1 41 77 46 57 8 -33 -17 -39 -28 -71 -26 -71 3 0 20 30 39 68 19
37 35 65 36 62 1 -15 -48 -127 -92 -209 -28 -52 -46 -91 -41 -88 22 14 117
191 194 362 10 22 18 33 18 25 1 -21 -62 -243 -88 -308 -12 -29 -17 -51 -12
-47 6 3 38 77 72 165 34 88 64 158 66 156 6 -6 -43 -190 -77 -290 -16 -49 -28
-91 -26 -93 4 -5 67 173 100 282 13 44 29 91 35 105 10 21 10 17 5 -25 -5 -41
-33 -191 -58 -305 -15 -69 36 100 61 200 26 107 28 112 31 70 2 -25 -1 -83 -7
-130 -21 -153 -23 -175 -18 -170 3 3 17 70 31 149 14 79 28 146 31 149 3 3 6
-24 6 -59 1 -62 2 -60 19 51 16 105 18 110 20 60 1 -30 5 -104 9 -165 l6 -110
8 103 c5 57 11 102 13 99 2 -2 8 -53 13 -113 l8 -109 3 180 c3 195 6 191 34
-40 13 -104 14 -106 15 -45 0 36 -4 103 -9 149 -6 46 -9 85 -7 87 2 3 15 -45
28 -105 13 -61 25 -108 27 -106 2 2 -2 37 -8 77 -22 137 -5 113 35 -50 22 -88
41 -160 42 -158 2 2 -8 74 -22 161 -14 87 -23 160 -21 162 2 3 15 -28 27 -67
27 -84 37 -80 14 5 -34 133 -10 96 56 -85 44 -122 49 -121 14 5 -14 49 -25 99
-25 110 1 18 2 17 16 -5 l15 -25 -5 33 c-7 41 7 34 35 -16 11 -20 17 -28 14
-17 -4 11 -9 45 -11 75 -4 44 -3 51 6 37 7 -10 10 -24 7 -31 -3 -6 1 -23 9
-37 l13 -24 1 32 c0 17 -4 43 -10 58 -8 22 -8 25 6 17 8 -5 24 -22 35 -38 23
-35 25 -25 4 16 -23 44 -2 37 30 -10 36 -52 41 -51 14 3 l-21 42 27 -25 c29
-26 27 -18 -8 35 -18 27 -15 25 23 -10 43 -40 44 -36 7 20 -20 30 -20 30 18
-5 30 -27 35 -29 22 -10 -37 55 -38 63 -2 30 27 -25 34 -29 26 -13 -13 26 -14
36 -2 28 5 -3 12 -1 16 5 16 27 182 -8 285 -60 69 -35 72 -26 5 20 -65 45
-161 78 -265 91 -76 10 -117 9 -252 -6 -410 -45 -674 19 -877 211 l-65 61 145
49 c79 27 146 49 149 49 3 0 8 -27 12 -60 15 -116 79 -204 187 -256 36 -18 64
-23 131 -23 76 -1 92 2 151 31 40 20 77 48 97 72 39 48 82 131 82 157 1 45 14
45 98 4 144 -69 302 -187 411 -306 33 -37 61 -63 61 -58 0 17 -53 88 -124 168
-66 74 -69 79 -51 92 10 8 22 14 27 14 4 0 8 5 8 11 0 7 -7 8 -17 4 -10 -4
-27 -10 -38 -12 l-20 -5 20 15 c20 16 20 16 -2 10 -35 -8 -27 2 27 37 63 40
66 51 4 15 -62 -37 -67 -25 -5 14 47 31 81 61 67 61 -4 0 -35 -18 -70 -40 -35
-22 -67 -40 -72 -40 -5 0 19 18 54 40 34 22 62 42 62 45 0 2 -28 -12 -61 -31
-34 -19 -63 -33 -65 -31 -2 2 18 19 44 39 26 20 58 49 72 64 l25 28 -40 -30
c-67 -51 -72 -50 -22 4 26 28 47 54 47 57 0 4 -26 -16 -57 -43 -57 -49 -111
-82 -134 -82 -6 0 20 33 59 74 38 41 73 83 77 95 10 31 19 26 64 -31 22 -29
45 -58 49 -64 5 -5 22 -29 37 -52 15 -23 30 -42 32 -42 16 0 -124 225 -188
302 -21 26 -39 49 -39 53 0 6 -74 76 -105 98 -17 13 -18 19 -7 53 14 47 9 56
-8 14 -15 -35 -36 -34 -33 1 1 13 -1 18 -3 12 -9 -21 -28 -15 -70 23 -21 20
-39 35 -39 33 0 -1 -6 0 -13 2 -10 3 -8 18 8 63 24 71 20 86 -5 19 -23 -64
-27 -66 -61 -48 -16 8 -35 15 -41 15 -7 0 -21 8 -30 18 -10 9 -25 17 -33 17
-9 0 -17 13 -20 30 -5 28 -6 29 -12 7 -5 -19 -11 -22 -30 -17 -13 4 -28 13
-34 21 -6 7 -14 11 -17 7 -4 -3 -45 3 -93 13 l-86 19 5 45 5 45 -15 -48 c-12
-39 -18 -47 -31 -41 -9 3 -32 6 -49 5 -31 -2 -33 0 -35 36 -1 37 -1 37 -5 6
-4 -29 -8 -33 -33 -33 -27 0 -29 3 -33 43 l-4 42 -1 -43 c-2 -39 -4 -43 -24
-40 -22 3 -23 7 -21 83 1 55 -1 72 -6 55 -5 -14 -9 -51 -10 -82 -1 -50 -4 -58
-20 -58 -17 0 -20 10 -25 83 -11 149 -13 153 -14 30 -2 -116 -3 -123 -22 -123
-18 0 -20 7 -22 83 l-2 82 -5 -85 c-6 -82 -7 -85 -31 -85 -27 0 -31 11 -49
175 -10 81 -10 78 -6 -48 4 -121 3 -133 -12 -130 -18 3 -34 80 -53 258 -8 74
-8 68 -4 -50 3 -74 6 -151 7 -170 4 -66 -18 -46 -31 30 -18 104 -23 123 -26
119 -4 -5 11 -137 19 -171 6 -25 4 -28 -18 -28 -23 0 -26 6 -56 133 -17 72
-32 143 -34 157 -3 15 -5 9 -5 -15 -2 -70 40 -268 83 -394 27 -79 27 -108 0
-45 -64 151 -116 325 -141 469 l-13 80 5 -79 c7 -94 39 -232 88 -374 19 -59
29 -98 21 -92 -20 17 -104 232 -135 350 -16 58 -29 93 -29 78 -1 -37 52 -237
87 -328 49 -124 47 -118 27 -92 -25 34 -83 164 -126 282 -48 132 -51 103 -4
-36 37 -110 82 -210 140 -309 40 -69 45 -89 12 -48 -94 116 -180 296 -241 505
-28 93 -33 84 -12 -19 33 -154 93 -297 182 -435 24 -38 42 -68 40 -68 -7 0
-111 151 -144 210 -18 30 -32 51 -32 47 0 -14 51 -111 92 -172 21 -33 27 -46
13 -30 -83 97 -176 282 -242 480 -24 72 -40 112 -37 90z m615 -461 c10 -43 27
-106 38 -139 11 -33 19 -61 17 -62 -2 -2 -17 27 -34 64 -34 75 -74 208 -64
217 15 16 27 -6 43 -80z m54 64 c3 -13 10 -54 15 -93 6 -38 18 -94 26 -124 8
-29 13 -55 11 -58 -11 -11 -96 244 -97 290 0 4 9 7 20 7 12 0 22 -8 25 -22z
m53 -23 c2 -38 27 -187 38 -230 5 -19 4 -19 -6 -2 -12 19 -70 238 -70 264 0 8
7 13 18 11 12 -2 18 -14 20 -43z m52 28 c0 -10 7 -67 15 -127 8 -61 13 -111
11 -113 -4 -5 -43 156 -51 215 -6 34 -4 42 9 42 9 0 16 -8 16 -17z m17 -20
c-3 -10 -5 -4 -5 12 0 17 2 24 5 18 2 -7 2 -21 0 -30z m40 -59 l2 -89 -14 70
c-18 91 -18 118 -2 113 8 -3 13 -33 14 -94z m62 -61 c-1 -179 -10 -173 -34 22
-8 66 -15 123 -15 127 0 4 11 8 25 8 l25 0 -1 -157z m58 88 c-4 -31 -9 -102
-13 -159 -4 -56 -9 -101 -11 -98 -8 8 -22 257 -16 291 4 27 9 32 25 27 18 -4
20 -11 15 -61z m-432 -26 c14 -47 41 -121 59 -165 19 -44 33 -80 31 -80 -13 0
-155 298 -155 324 0 3 9 6 19 6 16 0 25 -16 46 -85z m25 43 c6 -24 15 -58 20
-77 17 -62 3 -44 -20 26 -13 37 -25 74 -28 81 -2 6 1 12 7 12 5 0 15 -19 21
-42z m462 37 c2 -3 -1 -40 -8 -82 -7 -43 -13 -100 -14 -128 0 -27 -5 -57 -10
-65 -7 -10 -10 31 -10 126 0 77 3 144 7 147 7 8 28 9 35 2z m-1088 -21 c3 -8
2 -12 -4 -9 -6 3 -10 10 -10 16 0 14 7 11 14 -7z m1135 4 c0 -7 -11 -71 -24
-143 l-24 -130 5 135 c3 74 8 138 11 143 7 12 33 8 32 -5z m41 -18 c0 -32 -40
-273 -46 -280 -3 -3 -3 31 0 75 4 44 9 113 12 153 4 53 9 72 20 72 8 0 14 -9
14 -20z m83 1 c13 -2 8 -40 -23 -159 -30 -120 -58 -207 -59 -184 -1 7 8 74 20
148 24 156 20 192 -6 49 -10 -52 -20 -97 -24 -99 -3 -2 0 54 8 125 l14 128 31
-3 c17 -2 34 -4 39 -5z m57 -26 c0 -44 -77 -301 -88 -291 -4 5 30 194 49 269
10 36 39 53 39 22z m-433 -32 c-3 -10 -5 -4 -5 12 0 17 2 24 5 18 2 -7 2 -21
0 -30z m459 -10 c-6 -44 -53 -198 -55 -180 -1 12 29 159 40 195 15 47 23 39
15 -15z m14 -108 c-27 -80 -51 -131 -37 -80 3 11 13 56 23 100 9 44 22 89 28
100 10 19 11 19 14 -6 2 -14 -11 -66 -28 -114z m-1299 108 c13 -16 12 -17 -3
-4 -10 7 -18 15 -18 17 0 8 8 3 21 -13z m1389 -8 c17 -9 30 -19 30 -24 0 -29
-96 -232 -129 -271 -17 -21 -16 -14 9 45 29 69 42 128 15 70 l-14 -30 6 35 c7
48 44 190 50 190 2 0 17 -7 33 -15z m65 -35 c6 -10 -88 -220 -99 -220 -3 0 13
50 35 110 21 61 39 113 39 115 0 9 19 5 25 -5z m25 -76 c-26 -61 -70 -137 -76
-132 -2 3 11 40 29 84 19 43 37 88 41 98 5 14 10 16 17 9 8 -8 5 -25 -11 -59z
m106 -5 c9 -15 -72 -150 -123 -206 -24 -26 -39 -38 -33 -26 5 12 15 25 20 28
11 7 50 79 50 92 0 4 -10 -8 -23 -28 -12 -20 -39 -56 -61 -80 l-38 -44 21 42
c11 23 30 64 40 90 11 26 33 79 50 116 l32 68 29 -21 c16 -12 32 -25 36 -31z
m38 -27 c2 -4 -12 -38 -33 -76 -28 -49 -40 -63 -44 -51 -4 9 -3 14 3 10 6 -3
11 -1 11 4 3 21 4 26 22 74 18 45 30 57 41 39z m61 -52 l28 -30 -38 -57 c-47
-70 -80 -108 -120 -136 -25 -18 -24 -14 11 25 70 76 69 93 0 23 -36 -36 -70
-65 -75 -65 -5 0 14 35 43 78 28 42 65 103 81 134 17 32 33 58 36 58 3 0 18
-13 34 -30z m-718 -57 c-3 -10 -5 -4 -5 12 0 17 2 24 5 18 2 -7 2 -21 0 -30z
m314 0 c-12 -20 -14 -14 -5 12 4 9 9 14 11 11 3 -2 0 -13 -6 -23z m476 -10
c13 -14 23 -30 23 -35 0 -25 -69 -108 -118 -142 l-57 -39 41 44 c55 60 104
130 104 148 -1 12 -4 11 -13 -5 -25 -43 -70 -94 -105 -120 l-37 -28 42 46 c43
48 83 116 83 143 0 22 11 19 37 -12z m-1536 -40 c13 -16 12 -17 -3 -4 -17 13
-22 21 -14 21 2 0 10 -8 17 -17z m1619 -59 c0 -14 -149 -154 -163 -154 -6 0
15 27 46 59 74 77 74 91 1 21 l-57 -55 50 61 c27 33 55 75 62 93 l14 32 23
-22 c13 -13 24 -28 24 -35z m-2154 30 c18 -14 18 -14 -6 -3 -31 14 -36 19 -24
19 6 0 19 -7 30 -16z m588 -13 c-2 -3 -12 3 -22 13 -16 17 -16 18 5 5 12 -7
20 -15 17 -18z m-188 -118 c-6 -6 -136 51 -136 59 0 3 31 -8 70 -25 38 -17 68
-32 66 -34z m947 -37 c28 -21 22 -56 -13 -69 -36 -14 -36 -15 -7 -58 44 -67
136 -88 207 -48 42 24 68 62 78 117 l7 39 54 -15 53 -15 -4 -46 c-9 -92 -78
-185 -169 -229 -64 -31 -166 -30 -234 2 -95 45 -160 140 -166 241 l-3 50 39 8
c22 5 58 14 80 21 52 18 57 18 78 2z m-1016 -72 c-3 -3 -12 -4 -19 -1 -8 3 -5
6 6 6 11 1 17 -2 13 -5z m-90 -20 c-3 -3 -12 -4 -19 -1 -8 3 -5 6 6 6 11 1 17
-2 13 -5z m279 -169 c-11 -8 -27 -15 -35 -15 -9 1 -2 7 14 15 39 18 44 18 21
0z m9 -104 c-10 -9 -160 -71 -172 -71 -22 0 55 42 107 58 77 25 77 25 65 13z
m85 -85 c0 -2 -12 -11 -27 -20 l-28 -17 24 20 c23 21 31 25 31 17z"/>
<path d="M2567 4233 c-8 -14 -19 -68 -13 -62 8 8 26 69 21 69 -2 0 -6 -3 -8
-7z"/>
<path d="M1481 4784 c0 -11 3 -14 6 -6 3 7 2 16 -1 19 -3 4 -6 -2 -5 -13z"/>
<path d="M3419 4696 c41 -59 77 -155 101 -271 18 -82 32 -94 25 -20 -13 128
-75 267 -146 330 -12 11 -3 -7 20 -39z"/>
<path d="M2161 4594 c0 -11 3 -14 6 -6 3 7 2 16 -1 19 -3 4 -6 -2 -5 -13z"/>
<path d="M2222 4535 c0 -16 2 -22 5 -12 2 9 2 23 0 30 -3 6 -5 -1 -5 -18z"/>
<path d="M2994 3818 l-29 -33 33 29 c30 28 37 36 29 36 -2 0 -16 -15 -33 -32z"/>
<path d="M1160 3420 c-20 -6 -21 -8 -5 -8 11 0 29 3 40 8 25 11 -1 11 -35 0z"/>
<path d="M1108 3403 c7 -3 16 -2 19 1 4 3 -2 6 -13 5 -11 0 -14 -3 -6 -6z"/>
<path d="M1088 3333 c7 -3 16 -2 19 1 4 3 -2 6 -13 5 -11 0 -14 -3 -6 -6z"/>
<path d="M1725 3238 l-50 -51 58 48 c31 27 57 50 57 52 0 13 -23 -5 -65 -49z"/>
<path d="M4930 3033 l-65 -68 68 65 c37 35 67 66 67 67 0 8 -10 -2 -70 -64z"/>
<path d="M2571 3074 c0 -11 3 -14 6 -6 3 7 2 16 -1 19 -3 4 -6 -2 -5 -13z"/>
<path d="M3315 2164 c-184 -119 -365 -218 -584 -318 -64 -30 -219 -103 -346
-164 -126 -61 -275 -128 -330 -150 -340 -136 -680 -346 -912 -565 -86 -82
-243 -256 -302 -337 -37 -50 -36 -49 120 125 231 259 554 486 957 674 40 18
75 31 77 29 3 -3 -34 -36 -82 -74 -278 -219 -475 -442 -562 -637 -17 -37 -29
-67 -26 -67 2 0 20 30 40 68 88 160 303 388 525 557 206 156 282 202 637 384
424 216 588 310 748 426 39 27 89 63 112 79 37 24 73 58 62 55 -2 0 -62 -38
-134 -85z"/>
<path d="M4026 2205 c3 -22 12 -65 20 -96 8 -31 14 -82 14 -113 0 -47 -4 -60
-27 -86 -38 -40 -132 -95 -208 -120 -60 -20 -116 -62 -101 -77 3 -4 46 6 94
21 169 55 260 114 283 183 12 38 3 92 -37 218 -32 98 -47 126 -38 70z"/>
<path d="M3485 1871 c-46 -11 -93 -39 -105 -61 -14 -26 4 -26 61 0 57 25 134
25 199 0 56 -22 95 -26 84 -9 -3 6 -38 26 -77 45 -71 34 -104 39 -162 25z"/>
<path d="M3667 1468 l-67 -31 -49 26 c-65 36 -113 35 -212 -4 -89 -36 -101
-49 -18 -20 106 36 131 36 208 1 l69 -32 72 32 c72 31 111 35 165 16 11 -4 0
4 -25 18 -25 14 -52 25 -60 25 -8 1 -45 -13 -83 -31z"/>
<path d="M2655 1371 c21 -34 224 -98 445 -141 268 -51 456 -80 518 -80 98 0
301 30 387 57 80 25 181 71 173 78 -2 2 -33 -5 -68 -16 -51 -16 -113 -23 -279
-32 -198 -9 -227 -8 -375 11 -198 26 -298 38 -441 52 -94 9 -286 51 -349 76
-14 5 -17 4 -11 -5z"/>
<path d="M3065 1013 c51 -44 180 -106 270 -129 106 -27 269 -25 365 5 96 29
218 93 256 132 l29 31 -53 -36 c-29 -20 -90 -48 -135 -63 -79 -27 -90 -28
-267 -27 -213 1 -289 16 -425 83 l-80 39 40 -35z"/>
<path d="M0 260 l0 -260 3000 0 3000 0 0 260 0 260 -3000 0 -3000 0 0 -260z"/>
</g>
</svg>
